# xmcd
#
# Track frame offsets: 
#        150
#        13377
#        25668
#        41164
#        51870
#        60904
#        73107
#        87433
#        98628
#        111981
#        122296
#        131459
#        141898
#        151528
#        161160
#        171012
#
# Disc length: 2463 seconds
#
# Revision: 1
# Processed by: cddbd v1.5.2PL0 Copyright (c) Steve Scherf et al.
# Submitted via: ExactAudioCopyFreeDBPlugin 1.0
#
DISCID=ce099d10
DTITLE=Various Artist - Country Legends 2 - Jambalaya
DYEAR=2007
DGENRE=Country
TTITLE0=Kenny Rogers and The First Edition - Ruby, Don't Take Your Love 
TTITLE0=To Town
TTITLE1=Willie Nelson - Shelter Of Your Arms
TTITLE2=Anne Murray - There Goes My Everything
TTITLE3=Hank Locklin - Please Help Me I'm Falling
TTITLE4=Jerry Lee Lewis - Jambalaya
TTITLE5=Dolly Parton - Two Little Orphans
TTITLE6=Frankie Laine - Jezebel
TTITLE7=Buddy Blake - You Pass Me By
TTITLE8=Billie Joe Spears - Fever
TTITLE9=Jerry Wallace - You're Singing Our Love Song To Somebody
TTITLE10=Dave Dudley - Truck Driving Man
TTITLE11=Patsy Cline - He Will Do For You
TTITLE12=Ed Bruce - King Of Fools
TTITLE13=Donna Fargo - Sticks And Stones
TTITLE14=Buck Owens - I've Got A Tiger By The Tail
TTITLE15=Barbara Fairchild - Crazy Love
EXTD=YEAR: 2007
EXTT0=
EXTT1=
EXTT2=
EXTT3=
EXTT4=
EXTT5=
EXTT6=
EXTT7=
EXTT8=
EXTT9=
EXTT10=
EXTT11=
EXTT12=
EXTT13=
EXTT14=
EXTT15=
PLAYORDER=
